<svg class="main-svg" xmlns="http://www.w3.org/2000/svg" xmlns:xlink="http://www.w3.org/1999/xlink" width="900" height="600" style="" viewBox="0 0 900 600"><rect x="0" y="0" width="900" height="600" style="fill: rgb(255, 255, 255); fill-opacity: 1;"/><defs id="defs-635d24"><g class="clips"><clipPath id="clip635d24xyplot" class="plotclip"><rect width="740" height="420"/></clipPath><clipPath class="axesclip" id="clip635d24x"><rect x="80" y="0" width="740" height="600"/></clipPath><clipPath class="axesclip" id="clip635d24y"><rect x="0" y="100" width="900" height="420"/></clipPath><clipPath class="axesclip" id="clip635d24xy"><rect x="80" y="100" width="740" height="420"/></clipPath></g><g class="gradients"/><g class="patterns"/></defs><g class="bglayer"><rect class="bg" x="80" y="100" width="740" height="420" style="fill: rgb(229, 236, 246); fill-opacity: 1; stroke-width: 0;"/></g><g class="layer-below"><g class="imagelayer"/><g class="shapelayer"/></g><g class="cartesianlayer"><g class="subplot xy"><g class="layer-subplot"><g class="shapelayer"/><g class="imagelayer"/></g><g class="minor-gridlayer"><g class="x"/><g class="y"/></g><g class="gridlayer"><g class="x"><path class="xgrid crisp" transform="translate(156.93,0)" d="M0,100v420" style="stroke: rgb(255, 255, 255); stroke-opacity: 1; stroke-width: 1px;"/><path class="xgrid crisp" transform="translate(518.74,0)" d="M0,100v420" style="stroke: rgb(255, 255, 255); stroke-opacity: 1; stroke-width: 1px;"/><path class="xgrid crisp" transform="translate(699.65,0)" d="M0,100v420" style="stroke: rgb(255, 255, 255); stroke-opacity: 1; stroke-width: 1px;"/></g><g class="y"><path class="ygrid crisp" transform="translate(0,500.37)" d="M80,0h740" style="stroke: rgb(255, 255, 255); stroke-opacity: 1; stroke-width: 1px;"/><path class="ygrid crisp" transform="translate(0,440.79)" d="M80,0h740" style="stroke: rgb(255, 255, 255); stroke-opacity: 1; stroke-width: 1px;"/><path class="ygrid crisp" transform="translate(0,381.22)" d="M80,0h740" style="stroke: rgb(255, 255, 255); stroke-opacity: 1; stroke-width: 1px;"/><path class="ygrid crisp" transform="translate(0,262.08000000000004)" d="M80,0h740" style="stroke: rgb(255, 255, 255); stroke-opacity: 1; stroke-width: 1px;"/><path class="ygrid crisp" transform="translate(0,202.5)" d="M80,0h740" style="stroke: rgb(255, 255, 255); stroke-opacity: 1; stroke-width: 1px;"/><path class="ygrid crisp" transform="translate(0,142.93)" d="M80,0h740" style="stroke: rgb(255, 255, 255); stroke-opacity: 1; stroke-width: 1px;"/></g></g><g class="zerolinelayer"><path class="xzl zl crisp" transform="translate(337.84,0)" d="M0,100v420" style="stroke: rgb(255, 255, 255); stroke-opacity: 1; stroke-width: 2px;"/><path class="yzl zl crisp" transform="translate(0,321.65)" d="M80,0h740" style="stroke: rgb(255, 255, 255); stroke-opacity: 1; stroke-width: 2px;"/></g><g class="layer-between"><g class="shapelayer"/><g class="imagelayer"/></g><path class="xlines-below"/><path class="ylines-below"/><g class="overlines-below"/><g class="xaxislayer-below"/><g class="yaxislayer-below"/><g class="overaxes-below"/><g class="overplot"><g class="xy" transform="translate(80,100)" clip-path="url(#clip635d24xyplot)"><g class="scatterlayer mlayer"><g class="trace scatter trace167996" style="stroke-miterlimit: 2; opacity: 1;"><g class="fills"/><g class="errorbars"><g class="errorbar"><path class="yerror" d="M36.75,57.25h8m-4,0V131.04m-4,0h8" style="vector-effect: none; stroke-width: 2px; stroke: rgb(99, 110, 250); stroke-opacity: 1;"/></g><g class="errorbar"><path class="yerror" d="M62.08,21h8m-4,0V93.07m-4,0h8" style="vector-effect: none; stroke-width: 2px; stroke: rgb(99, 110, 250); stroke-opacity: 1;"/></g><g class="errorbar"><path class="yerror" d="M87.4,43.09h8m-4,0V116.2m-4,0h8" style="vector-effect: none; stroke-width: 2px; stroke: rgb(99, 110, 250); stroke-opacity: 1;"/></g><g class="errorbar"><path class="yerror" d="M112.73,50h8m-4,0V123.45m-4,0h8" style="vector-effect: none; stroke-width: 2px; stroke: rgb(99, 110, 250); stroke-opacity: 1;"/></g><g class="errorbar"><path class="yerror" d="M138.06,69.7h8m-4,0V144.15m-4,0h8" style="vector-effect: none; stroke-width: 2px; stroke: rgb(99, 110, 250); stroke-opacity: 1;"/></g><g class="errorbar"><path class="yerror" d="M163.38,94.45h8m-4,0V170.24m-4,0h8" style="vector-effect: none; stroke-width: 2px; stroke: rgb(99, 110, 250); stroke-opacity: 1;"/></g><g class="errorbar"><path class="yerror" d="M188.71,150.8h8m-4,0V229.99m-4,0h8" style="vector-effect: none; stroke-width: 2px; stroke: rgb(99, 110, 250); stroke-opacity: 1;"/></g><g class="errorbar"><path class="yerror" d="M214.04,175.6h8m-4,0V256.47m-4,0h8" style="vector-effect: none; stroke-width: 2px; stroke: rgb(99, 110, 250); stroke-opacity: 1;"/></g><g class="errorbar"><path class="yerror" d="M264.69,205.62h8m-4,0V288.67m-4,0h8" style="vector-effect: none; stroke-width: 2px; stroke: rgb(99, 110, 250); stroke-opacity: 1;"/></g><g class="errorbar"><path class="yerror" d="M290.02,213.98h8m-4,0V297.68m-4,0h8" style="vector-effect: none; stroke-width: 2px; stroke: rgb(99, 110, 250); stroke-opacity: 1;"/></g><g class="errorbar"><path class="yerror" d="M315.35,237.41h8m-4,0V322.98m-4,0h8" style="vector-effect: none; stroke-width: 2px; stroke: rgb(99, 110, 250); stroke-opacity: 1;"/></g><g class="errorbar"><path class="yerror" d="M340.67,280.91h8m-4,0V370.28m-4,0h8" style="vector-effect: none; stroke-width: 2px; stroke: rgb(99, 110, 250); stroke-opacity: 1;"/></g><g class="errorbar"><path class="yerror" d="M366,242.37h8m-4,0V328.36m-4,0h8" style="vector-effect: none; stroke-width: 2px; stroke: rgb(99, 110, 250); stroke-opacity: 1;"/></g><g class="errorbar"><path class="yerror" d="M391.33,285.7h8m-4,0V375.52m-4,0h8" style="vector-effect: none; stroke-width: 2px; stroke: rgb(99, 110, 250); stroke-opacity: 1;"/></g><g class="errorbar"><path class="yerror" d="M416.65,263.59h8m-4,0V351.42m-4,0h8" style="vector-effect: none; stroke-width: 2px; stroke: rgb(99, 110, 250); stroke-opacity: 1;"/></g><g class="errorbar"><path class="yerror" d="M441.98,258.94h8m-4,0V346.36m-4,0h8" style="vector-effect: none; stroke-width: 2px; stroke: rgb(99, 110, 250); stroke-opacity: 1;"/></g><g class="errorbar"><path class="yerror" d="M467.31,293.56h8m-4,0V384.14m-4,0h8" style="vector-effect: none; stroke-width: 2px; stroke: rgb(99, 110, 250); stroke-opacity: 1;"/></g><g class="errorbar"><path class="yerror" d="M492.63,307.1h8m-4,0V399m-4,0h8" style="vector-effect: none; stroke-width: 2px; stroke: rgb(99, 110, 250); stroke-opacity: 1;"/></g><g class="errorbar"><path class="yerror" d="M517.96,260.56h8m-4,0V348.15m-4,0h8" style="vector-effect: none; stroke-width: 2px; stroke: rgb(99, 110, 250); stroke-opacity: 1;"/></g><g class="errorbar"><path class="yerror" d="M543.29,286.29h8m-4,0V376.2m-4,0h8" style="vector-effect: none; stroke-width: 2px; stroke: rgb(99, 110, 250); stroke-opacity: 1;"/></g><g class="errorbar"><path class="yerror" d="M568.62,268.77h8m-4,0V357.09m-4,0h8" style="vector-effect: none; stroke-width: 2px; stroke: rgb(99, 110, 250); stroke-opacity: 1;"/></g><g class="errorbar"><path class="yerror" d="M593.94,300.47h8m-4,0V391.75m-4,0h8" style="vector-effect: none; stroke-width: 2px; stroke: rgb(99, 110, 250); stroke-opacity: 1;"/></g><g class="errorbar"><path class="yerror" d="M619.27,268.64h8m-4,0V356.96m-4,0h8" style="vector-effect: none; stroke-width: 2px; stroke: rgb(99, 110, 250); stroke-opacity: 1;"/></g><g class="errorbar"><path class="yerror" d="M644.6,267.63h8m-4,0V355.86m-4,0h8" style="vector-effect: none; stroke-width: 2px; stroke: rgb(99, 110, 250); stroke-opacity: 1;"/></g><g class="errorbar"><path class="yerror" d="M669.92,262.9h8m-4,0V350.73m-4,0h8" style="vector-effect: none; stroke-width: 2px; stroke: rgb(99, 110, 250); stroke-opacity: 1;"/></g><g class="errorbar"><path class="yerror" d="M695.25,261.91h8m-4,0V349.66m-4,0h8" style="vector-effect: none; stroke-width: 2px; stroke: rgb(99, 110, 250); stroke-opacity: 1;"/></g></g><g class="lines"><path class="js-line" d="M40.75,94.14L66.08,57.04L91.4,79.65L116.73,86.73L142.06,106.92L167.38,132.35L192.71,190.4L218.04,216.04L268.69,247.14L294.02,255.83L319.35,280.2L344.67,325.59L370,285.37L395.33,330.61L420.65,307.51L445.98,302.65L471.31,338.85L496.63,353.05L521.96,304.36L547.29,331.24L572.62,312.93L597.94,346.11L623.27,312.8L648.6,311.74L673.92,306.82L699.25,305.78" style="vector-effect: none; fill: none; stroke: rgb(99, 110, 250); stroke-opacity: 1; stroke-width: 2px; opacity: 1;"/></g><g class="points"><path class="point" transform="translate(40.75,94.14)" d="M3,0A3,3 0 1,1 0,-3A3,3 0 0,1 3,0Z" style="opacity: 1; stroke-width: 0px; fill: rgb(99, 110, 250); fill-opacity: 1;"/><path class="point" transform="translate(66.08,57.04)" d="M3,0A3,3 0 1,1 0,-3A3,3 0 0,1 3,0Z" style="opacity: 1; stroke-width: 0px; fill: rgb(99, 110, 250); fill-opacity: 1;"/><path class="point" transform="translate(91.4,79.65)" d="M3,0A3,3 0 1,1 0,-3A3,3 0 0,1 3,0Z" style="opacity: 1; stroke-width: 0px; fill: rgb(99, 110, 250); fill-opacity: 1;"/><path class="point" transform="translate(116.73,86.73)" d="M3,0A3,3 0 1,1 0,-3A3,3 0 0,1 3,0Z" style="opacity: 1; stroke-width: 0px; fill: rgb(99, 110, 250); fill-opacity: 1;"/><path class="point" transform="translate(142.06,106.92)" d="M3,0A3,3 0 1,1 0,-3A3,3 0 0,1 3,0Z" style="opacity: 1; stroke-width: 0px; fill: rgb(99, 110, 250); fill-opacity: 1;"/><path class="point" transform="translate(167.38,132.35)" d="M3,0A3,3 0 1,1 0,-3A3,3 0 0,1 3,0Z" style="opacity: 1; stroke-width: 0px; fill: rgb(99, 110, 250); fill-opacity: 1;"/><path class="point" transform="translate(192.71,190.4)" d="M3,0A3,3 0 1,1 0,-3A3,3 0 0,1 3,0Z" style="opacity: 1; stroke-width: 0px; fill: rgb(99, 110, 250); fill-opacity: 1;"/><path class="point" transform="translate(218.04,216.04)" d="M3,0A3,3 0 1,1 0,-3A3,3 0 0,1 3,0Z" style="opacity: 1; stroke-width: 0px; fill: rgb(99, 110, 250); fill-opacity: 1;"/><path class="point" transform="translate(268.69,247.14)" d="M3,0A3,3 0 1,1 0,-3A3,3 0 0,1 3,0Z" style="opacity: 1; stroke-width: 0px; fill: rgb(99, 110, 250); fill-opacity: 1;"/><path class="point" transform="translate(294.02,255.83)" d="M3,0A3,3 0 1,1 0,-3A3,3 0 0,1 3,0Z" style="opacity: 1; stroke-width: 0px; fill: rgb(99, 110, 250); fill-opacity: 1;"/><path class="point" transform="translate(319.35,280.2)" d="M3,0A3,3 0 1,1 0,-3A3,3 0 0,1 3,0Z" style="opacity: 1; stroke-width: 0px; fill: rgb(99, 110, 250); fill-opacity: 1;"/><path class="point" transform="translate(344.67,325.59)" d="M3,0A3,3 0 1,1 0,-3A3,3 0 0,1 3,0Z" style="opacity: 1; stroke-width: 0px; fill: rgb(99, 110, 250); fill-opacity: 1;"/><path class="point" transform="translate(370,285.37)" d="M3,0A3,3 0 1,1 0,-3A3,3 0 0,1 3,0Z" style="opacity: 1; stroke-width: 0px; fill: rgb(99, 110, 250); fill-opacity: 1;"/><path class="point" transform="translate(395.33,330.61)" d="M3,0A3,3 0 1,1 0,-3A3,3 0 0,1 3,0Z" style="opacity: 1; stroke-width: 0px; fill: rgb(99, 110, 250); fill-opacity: 1;"/><path class="point" transform="translate(420.65,307.51)" d="M3,0A3,3 0 1,1 0,-3A3,3 0 0,1 3,0Z" style="opacity: 1; stroke-width: 0px; fill: rgb(99, 110, 250); fill-opacity: 1;"/><path class="point" transform="translate(445.98,302.65)" d="M3,0A3,3 0 1,1 0,-3A3,3 0 0,1 3,0Z" style="opacity: 1; stroke-width: 0px; fill: rgb(99, 110, 250); fill-opacity: 1;"/><path class="point" transform="translate(471.31,338.85)" d="M3,0A3,3 0 1,1 0,-3A3,3 0 0,1 3,0Z" style="opacity: 1; stroke-width: 0px; fill: rgb(99, 110, 250); fill-opacity: 1;"/><path class="point" transform="translate(496.63,353.05)" d="M3,0A3,3 0 1,1 0,-3A3,3 0 0,1 3,0Z" style="opacity: 1; stroke-width: 0px; fill: rgb(99, 110, 250); fill-opacity: 1;"/><path class="point" transform="translate(521.96,304.36)" d="M3,0A3,3 0 1,1 0,-3A3,3 0 0,1 3,0Z" style="opacity: 1; stroke-width: 0px; fill: rgb(99, 110, 250); fill-opacity: 1;"/><path class="point" transform="translate(547.29,331.24)" d="M3,0A3,3 0 1,1 0,-3A3,3 0 0,1 3,0Z" style="opacity: 1; stroke-width: 0px; fill: rgb(99, 110, 250); fill-opacity: 1;"/><path class="point" transform="translate(572.62,312.93)" d="M3,0A3,3 0 1,1 0,-3A3,3 0 0,1 3,0Z" style="opacity: 1; stroke-width: 0px; fill: rgb(99, 110, 250); fill-opacity: 1;"/><path class="point" transform="translate(597.94,346.11)" d="M3,0A3,3 0 1,1 0,-3A3,3 0 0,1 3,0Z" style="opacity: 1; stroke-width: 0px; fill: rgb(99, 110, 250); fill-opacity: 1;"/><path class="point" transform="translate(623.27,312.8)" d="M3,0A3,3 0 1,1 0,-3A3,3 0 0,1 3,0Z" style="opacity: 1; stroke-width: 0px; fill: rgb(99, 110, 250); fill-opacity: 1;"/><path class="point" transform="translate(648.6,311.74)" d="M3,0A3,3 0 1,1 0,-3A3,3 0 0,1 3,0Z" style="opacity: 1; stroke-width: 0px; fill: rgb(99, 110, 250); fill-opacity: 1;"/><path class="point" transform="translate(673.92,306.82)" d="M3,0A3,3 0 1,1 0,-3A3,3 0 0,1 3,0Z" style="opacity: 1; stroke-width: 0px; fill: rgb(99, 110, 250); fill-opacity: 1;"/><path class="point" transform="translate(699.25,305.78)" d="M3,0A3,3 0 1,1 0,-3A3,3 0 0,1 3,0Z" style="opacity: 1; stroke-width: 0px; fill: rgb(99, 110, 250); fill-opacity: 1;"/></g><g class="text"/></g></g></g></g><path class="xlines-above crisp" d="M0,0" style="fill: none;"/><path class="ylines-above crisp" d="M0,0" style="fill: none;"/><g class="overlines-above"/><g class="xaxislayer-above"><g class="xtick"><text text-anchor="middle" x="0" y="533" transform="translate(156.93,0)" style="font-family: 'Open Sans', verdana, arial, sans-serif; font-size: 12px; fill: rgb(42, 63, 95); fill-opacity: 1; white-space: pre; opacity: 1;">−50</text></g><g class="xtick"><text text-anchor="middle" x="0" y="533" style="font-family: 'Open Sans', verdana, arial, sans-serif; font-size: 12px; fill: rgb(42, 63, 95); fill-opacity: 1; white-space: pre; opacity: 1;" transform="translate(337.84,0)">0</text></g><g class="xtick"><text text-anchor="middle" x="0" y="533" style="font-family: 'Open Sans', verdana, arial, sans-serif; font-size: 12px; fill: rgb(42, 63, 95); fill-opacity: 1; white-space: pre; opacity: 1;" transform="translate(518.74,0)">50</text></g><g class="xtick"><text text-anchor="middle" x="0" y="533" style="font-family: 'Open Sans', verdana, arial, sans-serif; font-size: 12px; fill: rgb(42, 63, 95); fill-opacity: 1; white-space: pre; opacity: 1;" transform="translate(699.65,0)">100</text></g></g><g class="yaxislayer-above"><g class="ytick"><text text-anchor="end" x="79" y="4.199999999999999" transform="translate(0,500.37)" style="font-family: 'Open Sans', verdana, arial, sans-serif; font-size: 12px; fill: rgb(42, 63, 95); fill-opacity: 1; white-space: pre; opacity: 1;">−0.6</text></g><g class="ytick"><text text-anchor="end" x="79" y="4.199999999999999" style="font-family: 'Open Sans', verdana, arial, sans-serif; font-size: 12px; fill: rgb(42, 63, 95); fill-opacity: 1; white-space: pre; opacity: 1;" transform="translate(0,440.79)">−0.4</text></g><g class="ytick"><text text-anchor="end" x="79" y="4.199999999999999" style="font-family: 'Open Sans', verdana, arial, sans-serif; font-size: 12px; fill: rgb(42, 63, 95); fill-opacity: 1; white-space: pre; opacity: 1;" transform="translate(0,381.22)">−0.2</text></g><g class="ytick"><text text-anchor="end" x="79" y="4.199999999999999" style="font-family: 'Open Sans', verdana, arial, sans-serif; font-size: 12px; fill: rgb(42, 63, 95); fill-opacity: 1; white-space: pre; opacity: 1;" transform="translate(0,321.65)">0</text></g><g class="ytick"><text text-anchor="end" x="79" y="4.199999999999999" style="font-family: 'Open Sans', verdana, arial, sans-serif; font-size: 12px; fill: rgb(42, 63, 95); fill-opacity: 1; white-space: pre; opacity: 1;" transform="translate(0,262.08000000000004)">0.2</text></g><g class="ytick"><text text-anchor="end" x="79" y="4.199999999999999" style="font-family: 'Open Sans', verdana, arial, sans-serif; font-size: 12px; fill: rgb(42, 63, 95); fill-opacity: 1; white-space: pre; opacity: 1;" transform="translate(0,202.5)">0.4</text></g><g class="ytick"><text text-anchor="end" x="79" y="4.199999999999999" style="font-family: 'Open Sans', verdana, arial, sans-serif; font-size: 12px; fill: rgb(42, 63, 95); fill-opacity: 1; white-space: pre; opacity: 1;" transform="translate(0,142.93)">0.6</text></g></g><g class="overaxes-above"/></g></g><g class="polarlayer"/><g class="smithlayer"/><g class="ternarylayer"/><g class="geolayer"/><g class="funnelarealayer"/><g class="pielayer"/><g class="iciclelayer"/><g class="treemaplayer"/><g class="sunburstlayer"/><g class="glimages"/><defs id="topdefs-635d24"><g class="clips"/></defs><g class="layer-above"><g class="imagelayer"/><g class="shapelayer"><g class="shape-group" data-index="0" clip-path="url(#clip635d24x)"><path data-index="0" fill-rule="evenodd" d="M337.84,520L337.84,100" style="opacity: 1; stroke: rgb(255, 0, 0); stroke-opacity: 1; fill: rgb(0, 0, 0); fill-opacity: 0; stroke-dasharray: 9px, 9px; stroke-width: 2px;"/></g><g class="shape-group" data-index="1" clip-path="url(#clip635d24y)"><path data-index="1" fill-rule="evenodd" d="M80,321.65L820,321.65" style="opacity: 1; stroke: rgb(0, 0, 0); stroke-opacity: 1; fill: rgb(0, 0, 0); fill-opacity: 0; stroke-dasharray: 9px, 9px; stroke-width: 2px;"/></g></g></g><g class="infolayer"><g class="g-gtitle"><text class="gtitle" x="45" y="50" text-anchor="start" dy="0em" style="opacity: 1; font-family: 'Open Sans', verdana, arial, sans-serif; font-size: 17px; fill: rgb(42, 63, 95); fill-opacity: 1; white-space: pre;">Descriptive Event-Time Hazard Study: 60-70</text></g><g class="g-xtitle"><text class="xtitle" x="450" y="560.3" text-anchor="middle" style="opacity: 1; font-family: 'Open Sans', verdana, arial, sans-serif; font-size: 14px; fill: rgb(42, 63, 95); fill-opacity: 1; white-space: pre;">Days from Eligibility (7-day bins)</text></g><g class="g-ytitle"><text class="ytitle" transform="rotate(-90,30.146875,310)" x="30.146875" y="310" text-anchor="middle" style="opacity: 1; font-family: 'Open Sans', verdana, arial, sans-serif; font-size: 14px; fill: rgb(42, 63, 95); fill-opacity: 1; white-space: pre;">Log Hazard Ratio</text></g><g class="annotation" data-index="0" style="opacity: 1;"><g class="annotation-text-g" transform="rotate(0,337.84,90.5)"><g class="cursor-pointer" transform="translate(308,81)"><rect class="bg" x="0.5" y="0.5" width="58" height="18" style="stroke-width: 1px; stroke: rgb(0, 0, 0); stroke-opacity: 0; fill: rgb(0, 0, 0); fill-opacity: 0;"/><text class="annotation-text" text-anchor="middle" x="29.0390625" y="14" style="font-family: 'Open Sans', verdana, arial, sans-serif; font-size: 12px; fill: rgb(42, 63, 95); fill-opacity: 1; white-space: pre;">Eligibility</text></g></g></g></g></svg>